nColumns=19
nRows=116
DataType=double
version=3
OpenSimVersion=4.1
endheader
time	ground_force_1_vx	ground_force_1_vy	ground_force_1_vz	ground_force_1_px	ground_force_1_py	ground_force_1_pz	ground_force_1_mx	ground_force_1_my	ground_force_1_mz	ground_force_2_vx	ground_force_2_vy	ground_force_2_vz	ground_force_2_px	ground_force_2_py	ground_force_2_pz	ground_force_2_mx	ground_force_2_my	ground_force_2_mz
0.1	-0.809371	11.5389	-0.491139	0.70273	0	-0.144089	-0	0.661179	-0	0	0	0	-0.000625116	0	-0.000573645	0	0	0
0.108333	-7.18004	28.3699	-4.35267	0.8613	0	-0.270436	-0	0.550959	-0	0	0	0	-0.000625116	0	-0.000573645	0	0	0
0.116667	-27.9909	81.3503	-9.96295	0.912637	0	-0.334403	-0	0.270118	-0	0	0	0	-0.000625116	0	-0.000573645	0	0	0
0.125	-67.2933	219.707	-14.6076	0.922659	0	-0.355806	0	-0.498948	0	0	0	0	-0.000625116	0	-0.000573645	0	0	0
0.133333	-115.123	492.903	-12.7817	0.924596	0	-0.360717	0	-1.88466	0	0	0	0	-0.000625116	0	-0.000573645	0	0	0
0.141667	-150.432	866.365	-0.0349502	0.922097	0	-0.359713	0	-3.70491	0	0	0	0	-0.000625116	0	-0.000573645	0	0	0
0.15	-166.752	1188.42	19.3328	0.913834	0	-0.35695	0	-5.48596	0	0	0	0	-0.000625116	0	-0.000573645	0	0	0
0.158333	-184.762	1351.28	30.5494	0.899989	0	-0.354389	0	-6.64719	0	0	0	0	-0.000625116	0	-0.000573645	0	0	0
0.166667	-216.414	1408.8	21.6212	0.880741	0	-0.353247	0	-6.76945	0	0	0	0	-0.000625116	0	-0.000573645	0	0	0
0.175	-237.144	1465.11	-1.61892	0.855211	0	-0.352951	0	-5.77812	0	0	0	0	-0.000625116	0	-0.000573645	0	0	0
0.183333	-223.13	1559.12	-20.9336	0.824274	0	-0.351119	0	-3.92077	0	0	0	0	-0.000625116	0	-0.000573645	0	0	0
0.191667	-179.888	1661.98	-26.3548	0.791969	0	-0.347364	0	-1.59118	0	0	0	0	-0.000625116	0	-0.000573645	0	0	0
0.2	-123.359	1727.68	-24.667	0.761021	0	-0.343774	-0	0.832221	-0	0	0	0	-0.000625116	0	-0.000573645	0	0	0
0.208333	-61.6647	1732.86	-26.428	0.730304	0	-0.341871	-0	3.03083	-0	0	0	0	-0.000625116	0	-0.000573645	0	0	0
0.216667	3.70031	1683.02	-31.7547	0.697804	0	-0.340943	-0	4.72221	-0	0	0	0	-0.000625116	0	-0.000573645	0	0	0
0.225	69.3848	1594.51	-32.8643	0.663476	0	-0.339552	-0	5.66975	-0	0	0	0	-0.000625116	0	-0.000573645	0	0	0
0.233333	130.521	1476.25	-25.47	0.628178	0	-0.33766	-0	5.74783	-0	0	0	0	-0.000625116	0	-0.000573645	0	0	0
0.241667	182.398	1330.11	-12.3053	0.592826	0	-0.336369	-0	5.00135	-0	0	0	0	-0.000625116	0	-0.000573645	0	0	0
0.25	218.363	1157.23	2.07924	0.558535	0	-0.336197	-0	3.64419	-0	0	0	0	-0.000625116	0	-0.000573645	0	0	0
0.258333	234.933	962.826	14.9584	0.526015	0	-0.336424	-0	1.99754	-0	0	0	0	-0.000625116	0	-0.000573645	0	0	0
0.266667	234.128	757.782	24.6554	0.495457	0	-0.336048	-0	0.401461	-0	0	0	0	-0.000625116	0	-0.000573645	0	0	0
0.275	217.741	557.227	29.759	0.466749	0	-0.334263	0	-0.869127	0	0	0	0	-0.000625116	0	-0.000573645	0	0	0
0.283333	183.733	377.037	29.657	0.439629	0	-0.330293	0	-1.66263	0	0	0	0	-0.000625116	0	-0.000573645	0	0	0
0.291667	134.746	230.082	25.0188	0.413074	0	-0.3237	0	-1.97025	0	0	0	0	-0.000625116	0	-0.000573645	0	0	0
0.3	83.3294	124.171	17.8849	0.386082	0	-0.313903	0	-1.90443	0	0	0	0	-0.000625116	0	-0.000573645	0	0	0
0.308333	43.128	59.0471	11.0613	0.372231	0	-0.294378	0	-1.64513	0	0	0	0	-0.000625116	0	-0.000573645	0	0	0
0.316667	19.3555	26.1547	6.53086	0.443636	0	-0.238216	0	-1.37254	0	0	0	0	-0.000625116	0	-0.000573645	0	0	0
0.325	8.28618	12.64	4.32297	0.689703	0	-0.116799	0	-1.21045	0	0	0	0	-0.000625116	0	-0.000573645	0	0	0
0.333333	0	0	0	-0.000625116	0	-0.000573645	0	0	0	0	0	0	-0.000625116	0	-0.000573645	0	0	0
0.341667	0	0	0	-0.000625116	0	-0.000573645	0	0	0	0	0	0	-0.000625116	0	-0.000573645	0	0	0
0.35	0	0	0	-0.000625116	0	-0.000573645	0	0	0	0	0	0	-0.000625116	0	-0.000573645	0	0	0
0.358333	0	0	0	-0.000625116	0	-0.000573645	0	0	0	0	0	0	-0.000625116	0	-0.000573645	0	0	0
0.366667	0	0	0	-0.000625116	0	-0.000573645	0	0	0	0	0	0	-0.000625116	0	-0.000573645	0	0	0
0.375	0	0	0	-0.000625116	0	-0.000573645	0	0	0	0	0	0	-0.000625116	0	-0.000573645	0	0	0
0.383333	0	0	0	-0.000625116	0	-0.000573645	0	0	0	0	0	0	-0.000625116	0	-0.000573645	0	0	0
0.391667	0	0	0	-0.000625116	0	-0.000573645	0	0	0	0	0	0	-0.000625116	0	-0.000573645	0	0	0
0.4	0	0	0	-0.000625116	0	-0.000573645	0	0	0	-1.80786	18.1843	-1.67151	0.795037	0	-0.227424	0	-0.31109	0
0.408333	0	0	0	-0.000625116	0	-0.000573645	0	0	0	-15.6827	43.6777	-4.50398	0.849095	0	-0.365376	0	-0.365178	0
0.416667	0	0	0	-0.000625116	0	-0.000573645	0	0	0	-45.2492	120.194	-6.29791	0.904223	0	-0.425474	0	-0.655248	0
0.425	0	0	0	-0.000625116	0	-0.000573645	0	0	0	-91.0082	298.552	-3.19163	0.933169	0	-0.436152	0	-1.06916	0
0.433333	0	0	0	-0.000625116	0	-0.000573645	0	0	0	-139.335	592.296	7.29181	0.943627	0	-0.43174	0	-1.39497	0
0.441667	0	0	0	-0.000625116	0	-0.000573645	0	0	0	-170.16	915.976	20.3803	0.94121	0	-0.42456	0	-1.41004	0
0.45	0	0	0	-0.000625116	0	-0.000573645	0	0	0	-184.329	1153.52	24.1977	0.927817	0	-0.420723	0	-1.02623	0
0.458333	0	0	0	-0.000625116	0	-0.000573645	0	0	0	-200.976	1291.36	13.2526	0.905294	0	-0.423473	0	-0.403654	0
0.466667	0	0	0	-0.000625116	0	-0.000573645	0	0	0	-222.195	1391.29	0.52932	0.878756	0	-0.429939	-0	0.087198	-0
0.475	0	0	0	-0.000625116	0	-0.000573645	0	0	0	-230.671	1497.92	5.55759	0.852503	0	-0.433328	-0	0.077832	-0
0.483333	0	0	0	-0.000625116	0	-0.000573645	0	0	0	-211.694	1605.66	29.8385	0.8252	0	-0.432379	0	-0.562585	0
0.491667	0	0	0	-0.000625116	0	-0.000573645	0	0	0	-163.609	1682.39	54.058	0.794227	0	-0.431634	0	-1.66605	0
0.5	0	0	0	-0.000625116	0	-0.000573645	0	0	0	-96.2385	1707.62	61.5919	0.758995	0	-0.433975	0	-2.9087	0
0.508333	0	0	0	-0.000625116	0	-0.000573645	0	0	0	-24.2383	1686.82	55.6987	0.721263	0	-0.437474	0	-3.99562	0
0.516667	0	0	0	-0.000625116	0	-0.000573645	0	0	0	41.424	1634.88	49.4507	0.684069	0	-0.438884	0	-4.73219	0
0.525	0	0	0	-0.000625116	0	-0.000573645	0	0	0	101.475	1554.51	46.8328	0.649155	0	-0.437935	0	-4.9934	0
0.533333	0	0	0	-0.000625116	0	-0.000573645	0	0	0	160.125	1437.72	41.1875	0.615862	0	-0.436753	0	-4.70233	0
0.541667	0	0	0	-0.000625116	0	-0.000573645	0	0	0	212.631	1279.76	27.9073	0.582771	0	-0.43662	0	-3.8663	0
0.55	0	0	0	-0.000625116	0	-0.000573645	0	0	0	248.336	1087.26	10.5518	0.550164	0	-0.436617	0	-2.61746	0
0.558333	0	0	0	-0.000625116	0	-0.000573645	0	0	0	259.38	873.879	-4.98741	0.519415	0	-0.435298	0	-1.1995	0
0.566667	0	0	0	-0.000625116	0	-0.000573645	0	0	0	245.96	655.566	-16.5092	0.490246	0	-0.432368	-0	0.094464	-0
0.575	0	0	0	-0.000625116	0	-0.000573645	0	0	0	211.734	450.778	-24.4082	0.460887	0	-0.429257	-0	0.993735	-0
0.583333	0	0	0	-0.000625116	0	-0.000573645	0	0	0	161.338	277.925	-28.0847	0.430294	0	-0.428292	-0	1.31019	-0
0.591667	0	0	0	-0.000625116	0	-0.000573645	0	0	0	104.06	150.328	-26.1274	0.403042	0	-0.428582	-0	0.983986	-0
0.6	0	0	0	-0.000625116	0	-0.000573645	0	0	0	55.0626	71.4315	-19.2958	0.396293	0	-0.417728	-0	0.104097	-0
0.608333	0	0	0	-0.000625116	0	-0.000573645	0	0	0	25.8335	33.2907	-11.0867	0.462666	0	-0.360864	0	-1.11438	0
0.616667	0	0	0	-0.000625116	0	-0.000573645	0	0	0	12.1472	18.6694	-4.79603	0.644609	0	-0.252835	0	-2.39495	0
0.625	0	0	0	-0.000625116	0	-0.000573645	0	0	0	3.70504	11.4504	-1.20697	0.795163	0	-0.143148	0	-3.47613	0
0.633333	0	0	0	-0.000625116	0	-0.000573645	0	0	0	0	0	0	-0.000625116	0	-0.000573645	0	0	0
0.641667	0	0	0	-0.000625116	0	-0.000573645	0	0	0	0	0	0	-0.000625116	0	-0.000573645	0	0	0
0.65	0	0	0	-0.000625116	0	-0.000573645	0	0	0	0	0	0	-0.000625116	0	-0.000573645	0	0	0
0.658333	0	0	0	-0.000625116	0	-0.000573645	0	0	0	0	0	0	-0.000625116	0	-0.000573645	0	0	0
0.666667	0	0	0	-0.000625116	0	-0.000573645	0	0	0	0	0	0	-0.000625116	0	-0.000573645	0	0	0
0.675	0	0	0	-0.000625116	0	-0.000573645	0	0	0	0	0	0	-0.000625116	0	-0.000573645	0	0	0
0.683333	0	0	0	-0.000625116	0	-0.000573645	0	0	0	0	0	0	-0.000625116	0	-0.000573645	0	0	0
0.691667	-1.28582	13.115	-0.530934	0.577426	0	-0.114725	-0	0.928861	-0	0	0	0	-0.000625116	0	-0.000573645	0	0	0
0.7	-8.76393	26.9871	-3.93958	0.784388	0	-0.236874	-0	0.98892	-0	0	0	0	-0.000625116	0	-0.000573645	0	0	0
0.708333	-29.8646	75.2693	-8.90347	0.920334	0	-0.299877	-0	0.215485	-0	0	0	0	-0.000625116	0	-0.000573645	0	0	0
0.716667	-68.4702	206.031	-13.2954	0.957197	0	-0.318026	0	-1.40816	0	0	0	0	-0.000625116	0	-0.000573645	0	0	0
0.725	-118.694	464.133	-13.0551	0.965969	0	-0.321865	0	-3.66693	0	0	0	0	-0.000625116	0	-0.000573645	0	0	0
0.733333	-163.717	814.995	-5.24783	0.963651	0	-0.32151	0	-6.09497	0	0	0	0	-0.000625116	0	-0.000573645	0	0	0
0.741667	-192.477	1123.84	6.29891	0.952969	0	-0.319907	0	-8.05611	0	0	0	0	-0.000625116	0	-0.000573645	0	0	0
0.75	-216.539	1297.69	10.3614	0.936134	0	-0.318432	0	-8.93235	0	0	0	0	-0.000625116	0	-0.000573645	0	0	0
0.758333	-246.767	1379.6	-1.27754	0.915272	0	-0.318034	0	-8.34997	0	0	0	0	-0.000625116	0	-0.000573645	0	0	0
0.766667	-266.094	1456.18	-23.4511	0.890633	0	-0.318143	0	-6.31439	0	0	0	0	-0.000625116	0	-0.000573645	0	0	0
0.775	-253.632	1562.54	-42.8592	0.8613	0	-0.317017	0	-3.1718	0	0	0	0	-0.000625116	0	-0.000573645	0	0	0
0.783333	-210.633	1674.64	-52.8421	0.828833	0	-0.314511	-0	0.554289	-0	0	0	0	-0.000625116	0	-0.000573645	0	0	0
0.791667	-152.207	1749.73	-58.0976	0.795814	0	-0.312038	-0	4.32335	-0	0	0	0	-0.000625116	0	-0.000573645	0	0	0
0.8	-89.76	1764.27	-65.1269	0.762755	0	-0.310526	-0	7.65602	-0	0	0	0	-0.000625116	0	-0.000573645	0	0	0
0.808333	-23.7704	1723.62	-73.1619	0.729157	0	-0.309535	-0	10.1558	-0	0	0	0	-0.000625116	0	-0.000573645	0	0	0
0.816667	45.4474	1644.98	-76.3967	0.695322	0	-0.308198	-0	11.5364	-0	0	0	0	-0.000625116	0	-0.000573645	0	0	0
0.825	111.384	1537.41	-71.4502	0.66196	0	-0.306528	-0	11.6709	-0	0	0	0	-0.000625116	0	-0.000573645	0	0	0
0.833333	166.878	1401.84	-59.6734	0.629459	0	-0.305341	-0	10.6258	-0	0	0	0	-0.000625116	0	-0.000573645	0	0	0
0.841667	206.536	1237.24	-43.9563	0.597127	0	-0.305207	-0	8.65198	-0	0	0	0	-0.000625116	0	-0.000573645	0	0	0
0.85	229.659	1046.48	-26.3641	0.56334	0	-0.305921	-0	6.13098	-0	0	0	0	-0.000625116	0	-0.000573645	0	0	0
0.858333	237.262	839.51	-8.81704	0.528499	0	-0.306788	-0	3.49718	-0	0	0	0	-0.000625116	0	-0.000573645	0	0	0
0.866667	227.934	630.804	5.99082	0.496218	0	-0.306775	-0	1.15149	-0	0	0	0	-0.000625116	0	-0.000573645	0	0	0
0.875	199.537	437.106	15.2951	0.469597	0	-0.304971	0	-0.61816	0	0	0	0	-0.000625116	0	-0.000573645	0	0	0
0.883333	155.294	275.149	17.9118	0.448544	0	-0.30099	0	-1.6903	0	0	0	0	-0.000625116	0	-0.000573645	0	0	0
0.891667	104.848	155.737	15.2551	0.4341	0	-0.293383	0	-2.11812	0	0	0	0	-0.000625116	0	-0.000573645	0	0	0
0.9	59.2359	79.3203	10.5203	0.433445	0	-0.276221	0	-2.08665	0	0	0	0	-0.000625116	0	-0.000573645	0	0	0
0.908333	26.8956	37.5265	6.52247	0.454475	0	-0.234641	0	-1.83547	0	0	0	0	-0.000625116	0	-0.000573645	0	0	0
0.916667	9.7584	17.9493	4.25092	0.497431	0	-0.148292	0	-1.57803	0	0	0	0	-0.000625116	0	-0.000573645	0	0	0
0.925	0	0	0	-0.000625116	0	-0.000573645	0	0	0	0	0	0	-0.000625116	0	-0.000573645	0	0	0
0.933333	0	0	0	-0.000625116	0	-0.000573645	0	0	0	0	0	0	-0.000625116	0	-0.000573645	0	0	0
0.941667	0	0	0	-0.000625116	0	-0.000573645	0	0	0	0	0	0	-0.000625116	0	-0.000573645	0	0	0
0.95	0	0	0	-0.000625116	0	-0.000573645	0	0	0	0	0	0	-0.000625116	0	-0.000573645	0	0	0
0.958333	0	0	0	-0.000625116	0	-0.000573645	0	0	0	0	0	0	-0.000625116	0	-0.000573645	0	0	0
0.966667	0	0	0	-0.000625116	0	-0.000573645	0	0	0	0	0	0	-0.000625116	0	-0.000573645	0	0	0
0.975	0	0	0	-0.000625116	0	-0.000573645	0	0	0	0	0	0	-0.000625116	0	-0.000573645	0	0	0
0.983333	0	0	0	-0.000625116	0	-0.000573645	0	0	0	0	0	0	-0.000625116	0	-0.000573645	0	0	0
0.991667	0	0	0	-0.000625116	0	-0.000573645	0	0	0	-1.31969	14.018	-1.20226	0.790005	0	-0.181597	-0	0.599663	-0
1	0	0	0	-0.000625116	0	-0.000573645	0	0	0	-9.92704	34.6108	-4.47585	0.942685	0	-0.356724	-0	1.03608	-0
1.00833	0	0	0	-0.000625116	0	-0.000573645	0	0	0	-31.7067	102.714	-6.92632	0.960838	0	-0.428107	-0	1.08736	-0
1.01667	0	0	0	-0.000625116	0	-0.000573645	0	0	0	-69.0183	270.088	-4.16327	0.959905	0	-0.444963	-0	0.706124	-0
1.025	0	0	0	-0.000625116	0	-0.000573645	0	0	0	-110.32	564.803	8.18096	0.961071	0	-0.443783	0	-0.003072	0
1.03333	0	0	0	-0.000625116	0	-0.000573645	0	0	0	-138.246	913.896	28.0212	0.959231	0	-0.436921	0	-0.820866	0
1.04167	0	0	0	-0.000625116	0	-0.000573645	0	0	0	-153.697	1172.92	43.0121	0.950489	0	-0.431289	0	-1.5379	0
1.05	0	0	0	-0.000625116	0	-0.000573645	0	0	0	-171.634	1291.42	41.258	0.93396	0	-0.43171	0	-2.1036	0
1.05833	0	0	0	-0.000625116	0	-0.000573645	0	0	0	-193.365	1346.02	29.3515	0.911741	0	-0.437668	0	-2.66652	0
